<svg width="147" height="24" viewBox="0 0 147 24" fill="none" xmlns="http://www.w3.org/2000/svg">
<path fill-rule="evenodd" clip-rule="evenodd" d="M118.704 23.7408C119.904 23.7408 120.977 23.6002 121.924 23.3189C122.871 23.0377 123.667 22.6461 124.311 22.1443C124.955 21.6425 125.489 21.0276 125.913 20.2996C126.337 19.5717 126.642 18.7776 126.829 17.9173C127.017 17.057 127.11 16.114 127.11 15.0882V0.264706H123.328V2.00184H123.262C122.579 1.3511 121.795 0.854779 120.909 0.512868C120.022 0.170956 119.1 0 118.142 0C116.634 0 115.28 0.358456 114.08 1.07537C112.879 1.79228 111.946 2.78768 111.28 4.06158C110.614 5.33548 110.281 6.76654 110.281 8.35478C110.281 9.96507 110.631 11.3934 111.33 12.6397C112.029 13.886 112.99 14.8428 114.212 15.5101C115.434 16.1774 116.81 16.511 118.341 16.511C120.388 16.511 122.056 15.8382 123.345 14.4926H123.411V16.2463C123.411 17.4154 122.981 18.386 122.123 19.1581C121.264 19.9301 120.053 20.3162 118.489 20.3162C117.421 20.3162 116.483 20.1838 115.673 19.9191C114.864 19.6544 113.931 19.2408 112.874 18.6783L111.982 22.0202C112.907 22.5717 113.947 22.9963 115.104 23.2941C116.26 23.5919 117.46 23.7408 118.704 23.7408ZM40.0141 8.55331V16.8088H36.2321V8.18934C36.2321 5.03493 35.1366 3.45772 32.9456 3.45772C31.7895 3.45772 30.8399 3.91268 30.0967 4.82261C29.3535 5.73254 28.9819 6.9761 28.9819 8.55331V16.7923H25.2V0.264706H28.9819V2.54779H29.0315C29.7031 1.73162 30.4876 1.1057 31.3849 0.670037C32.2822 0.234375 33.2154 0.0165441 34.1843 0.0165441C36.4854 0.0165441 38.1259 0.931985 39.1058 2.76287H39.1719C39.8655 1.86949 40.7188 1.18842 41.7317 0.719669C42.7447 0.250919 43.8622 0.0165441 45.0843 0.0165441C46.945 0.0165441 48.3764 0.61489 49.3783 1.81158C50.3802 3.00827 50.8812 4.81434 50.8812 7.22978V16.8088H47.0992V8.18934C47.0992 5.03493 46.0202 3.45772 43.8622 3.45772C42.7612 3.45772 41.8446 3.91268 41.1124 4.82261C40.3802 5.73254 40.0141 6.9761 40.0141 8.55331ZM66.367 14.5754C65.1118 16.2298 63.3612 17.057 61.1151 17.057C59.9811 17.057 58.9214 16.8557 57.936 16.4531C56.9505 16.0506 56.1055 15.4853 55.4009 14.7574C54.6962 14.0294 54.1402 13.136 53.7328 12.0772C53.3254 11.0184 53.1218 9.86029 53.1218 8.60294C53.1218 7.37868 53.3254 6.23162 53.7328 5.16177C54.1402 4.09191 54.6962 3.18199 55.4009 2.43199C56.1055 1.68199 56.9478 1.09191 57.9277 0.661765C58.9076 0.231618 59.9591 0.0165441 61.0821 0.0165441C63.2291 0.0165441 64.9302 0.761029 66.1853 2.25H66.2514V0.264706H70.0334V16.7923H66.4165V14.5754H66.367ZM61.7097 13.6158C60.3114 13.6158 59.1718 13.1498 58.291 12.2178C57.4102 11.2858 56.9698 10.0864 56.9698 8.61948C56.9698 7.06434 57.424 5.81526 58.3323 4.87224C59.2407 3.92923 60.372 3.45772 61.7262 3.45772C63.0694 3.45772 64.1842 3.95129 65.0705 4.93842C65.9569 5.92555 66.4 7.15257 66.4 8.61948C66.4 10.0864 65.9459 11.2858 65.0375 12.2178C64.1292 13.1498 63.0199 13.6158 61.7097 13.6158ZM88.8222 7.06434V16.8088H85.0402V8.04044C85.0402 7.18015 84.9632 6.45221 84.809 5.85662C84.6549 5.26103 84.4182 4.78952 84.0989 4.4421C83.7796 4.09467 83.408 3.84375 82.9841 3.68934C82.5602 3.53493 82.051 3.45772 81.4564 3.45772C80.1572 3.45772 79.1195 3.8989 78.3433 4.78125C77.5671 5.6636 77.179 6.8989 77.179 8.48713V16.7923H73.397V0.264706H77.179V2.53125H77.2285C77.9222 1.71507 78.7479 1.09191 79.7058 0.661765C80.6637 0.231618 81.6821 0.0165441 82.7611 0.0165441C84.6549 0.0165441 86.1385 0.592831 87.212 1.7454C88.2855 2.89798 88.8222 4.67096 88.8222 7.06434ZM99.0397 17.057C101.286 17.057 103.036 16.2298 104.292 14.5754H104.341V16.7923H107.958V0.264706H104.176V2.25H104.11C102.855 0.761029 101.154 0.0165441 99.0067 0.0165441C97.8836 0.0165441 96.8321 0.231618 95.8522 0.661765C94.8723 1.09191 94.0301 1.68199 93.3254 2.43199C92.6208 3.18199 92.0647 4.09191 91.6574 5.16177C91.25 6.23162 91.0463 7.37868 91.0463 8.60294C91.0463 9.86029 91.25 11.0184 91.6574 12.0772C92.0647 13.136 92.6208 14.0294 93.3254 14.7574C94.0301 15.4853 94.8751 16.0506 95.8605 16.4531C96.8459 16.8557 97.9056 17.057 99.0397 17.057ZM96.2156 12.2178C97.0964 13.1498 98.2359 13.6158 99.6342 13.6158C100.944 13.6158 102.054 13.1498 102.962 12.2178C103.87 11.2858 104.325 10.0864 104.325 8.61948C104.325 7.15257 103.881 5.92555 102.995 4.93842C102.109 3.95129 100.994 3.45772 99.6507 3.45772C98.2965 3.45772 97.1652 3.92923 96.2569 4.87224C95.3485 5.81526 94.8944 7.06434 94.8944 8.61948C94.8944 10.0864 95.3348 11.2858 96.2156 12.2178ZM115.459 11.7215C116.345 12.5873 117.471 13.0202 118.836 13.0202C120.212 13.0202 121.333 12.5653 122.197 11.6553C123.061 10.7454 123.493 9.59007 123.493 8.18934C123.493 6.79963 123.05 5.66912 122.164 4.79779C121.277 3.92647 120.168 3.49081 118.836 3.49081C117.438 3.49081 116.304 3.93199 115.434 4.81434C114.564 5.69669 114.129 6.83824 114.129 8.23897C114.129 9.69485 114.572 10.8557 115.459 11.7215ZM137.922 17.057C139.464 17.057 140.821 16.7757 141.993 16.2132C143.166 15.6507 144.126 14.8897 144.875 13.9301L142.233 11.6636C141.198 12.9651 139.827 13.6158 138.12 13.6158C136.909 13.6158 135.882 13.2794 135.04 12.6066C134.198 11.9338 133.656 11.0129 133.413 9.84375H145.437C145.503 9.44669 145.536 8.94485 145.536 8.33824C145.536 6.73897 145.211 5.31066 144.561 4.05331C143.912 2.79596 142.976 1.80882 141.754 1.09191C140.532 0.375 139.122 0.0165441 137.526 0.0165441C136.392 0.0165441 135.329 0.223346 134.338 0.636949C133.347 1.05055 132.494 1.62684 131.778 2.36581C131.063 3.10478 130.501 4.00368 130.094 5.0625C129.687 6.12132 129.483 7.2739 129.483 8.52022C129.483 10.2077 129.852 11.705 130.589 13.0119C131.327 14.3189 132.334 15.3199 133.612 16.0147C134.889 16.7096 136.326 17.057 137.922 17.057ZM133.48 6.78309H141.737C141.495 5.75735 141.03 4.94669 140.342 4.3511C139.653 3.75551 138.781 3.45772 137.724 3.45772C136.678 3.45772 135.775 3.74724 135.015 4.32629C134.256 4.90533 133.744 5.72426 133.48 6.78309Z" fill="white"/>
<path fill-rule="evenodd" clip-rule="evenodd" d="M5.57143 2.85714C5.57143 4.4351 4.32422 5.71429 2.78571 5.71429C1.24721 5.71429 0 4.4351 0 2.85714C0 1.27919 1.24721 0 2.78571 0C4.32422 0 5.57143 1.27919 5.57143 2.85714ZM5.57143 13.1429C5.57143 14.7208 4.32422 16 2.78571 16C1.24721 16 0 14.7208 0 13.1429C0 11.5649 1.24721 10.2857 2.78571 10.2857C4.32422 10.2857 5.57143 11.5649 5.57143 13.1429ZM12.8143 5.71429C14.3528 5.71429 15.6 4.4351 15.6 2.85714C15.6 1.27919 14.3528 0 12.8143 0C11.2758 0 10.0286 1.27919 10.0286 2.85714C10.0286 4.4351 11.2758 5.71429 12.8143 5.71429Z" fill="#F3603C"/>
<ellipse opacity="0.5" cx="12.8143" cy="13.2572" rx="2.78571" ry="2.85714" fill="#F3603C"/>
</svg>
